<?xml version="1.0" encoding="UTF-8" standalone="no"?><!DOCTYPE svg PUBLIC "-//W3C//DTD SVG 1.1//EN" "http://www.w3.org/Graphics/SVG/1.1/DTD/svg11.dtd"><svg width="100%" height="100%" viewBox="0 0 256 256" version="1.1" xmlns="http://www.w3.org/2000/svg" xmlns:xlink="http://www.w3.org/1999/xlink" xml:space="preserve" xmlns:serif="http://www.serif.com/" style="fill-rule:evenodd;clip-rule:evenodd;"><rect x="0" y="0" width="256" height="256" style="fill:#5123a0;"/><g id="Icon" opacity="0.25"><path id="Neck-2" d="M191.305,85.542l-12.075,20.916l94.119,54.339l12.075,-20.915l-94.119,-54.34Z" style="fill:#6c46ae;"/><path id="Neck-1" d="M127.333,113.014l-17.077,-17.077l-76.848,76.848l17.077,17.077l76.848,-76.848Z" style="fill:#6c46ae;"/><circle id="Point-3" cx="315.648" cy="172.679" r="37.434" style="fill:#6c46ae;stroke:#6c46ae;stroke-width:14.49px;"/><circle id="Point-2" cx="149.006" cy="74.868" r="37.434" style="fill:#6c46ae;stroke:#6c46ae;stroke-width:14.49px;"/><circle id="Point-1" cx="11.346" cy="211.321" r="44.679" style="fill:#6c46ae;"/></g><path d="M57.219,50.141c-15.532,0 -28.312,12.781 -28.312,28.312l-0,99.094c-0,15.531 12.78,28.312 28.312,28.312l141.562,-0c15.532,-0 28.312,-12.781 28.312,-28.312l0,-99.094c0,-15.531 -12.78,-28.312 -28.312,-28.312l-141.562,0Zm38.93,28.312c-11.649,0 -21.235,9.586 -21.235,21.235c0,11.648 9.586,21.234 21.235,21.234c11.648,-0 21.234,-9.586 21.234,-21.234c-0,-11.649 -9.586,-21.235 -21.234,-21.235Zm-36.552,82.135c5.617,-15.292 20.262,-25.514 36.552,-25.514c16.29,0 30.934,10.222 36.551,25.514c1.211,3.3 -0.211,7.027 -3.313,8.682c-10.23,5.449 -21.648,8.292 -33.238,8.277c-11.591,0.015 -23.009,-2.828 -33.239,-8.277c-3.101,-1.655 -4.523,-5.382 -3.313,-8.682Zm96.715,-67.978c-3.883,-0 -7.078,3.195 -7.078,7.078c0,3.883 3.195,7.078 7.078,7.078l35.391,-0c3.883,-0 7.078,-3.195 7.078,-7.078c-0,-3.883 -3.195,-7.078 -7.078,-7.078l-35.391,-0Zm-7.078,35.39c0,-3.883 3.195,-7.078 7.078,-7.078l35.391,-0c3.883,-0 7.078,3.195 7.078,7.078c-0,3.883 -3.195,7.078 -7.078,7.078l-35.391,0c-3.883,0 -7.078,-3.195 -7.078,-7.078Zm7.078,21.234c-3.883,0 -7.078,3.195 -7.078,7.078c0,3.883 3.195,7.078 7.078,7.078l35.391,0c3.883,0 7.078,-3.195 7.078,-7.078c-0,-3.883 -3.195,-7.078 -7.078,-7.078l-35.391,0Z" style="fill:#fff;"/><g transform="matrix(0.20749,0,0,0.20749,36.9811,-3.66999)"><text x="147.959px" y="158.023px" style="font-family:'Lato-Bold', 'Lato', sans-serif;font-weight:700;font-size:83.333px;fill:#fff;">V<tspan x="202.959px 221.375px 253.625px 272.042px 300.125px 343.334px 373.209px 385.125px 422.042px 465.25px 504.542px 544.917px 588.125px 600.042px 640.584px 680.042px 698.459px " y="158.023px 158.023px 158.023px 158.023px 158.023px 158.023px 158.023px 158.023px 158.023px 158.023px 158.023px 158.023px 158.023px 158.023px 158.023px 158.023px 158.023px ">isitor Token Salt</tspan></text><g transform="matrix(83.3333,0,0,83.3333,668.792,1158.02)"></g><text x="209.875px" y="1158.02px" style="font-family:'Lato-Bold', 'Lato', sans-serif;font-weight:700;font-size:83.333px;fill:#fff;">R<tspan x="260.292px 300.667px 339.625px 380px 423.209px 463.584px 492.25px 531.709px 559.792px 578.209px 621.417px " y="1158.02px 1158.02px 1158.02px 1158.02px 1158.02px 1158.02px 1158.02px 1158.02px 1158.02px 1158.02px 1158.02px ">egeneration</tspan></text></g><path d="M211.896,175.945l7.931,-0l0,-0.002m-28.644,16.36l-0,-7.931m-0,-0l7.931,-0m-7.933,-0l5.054,5.056c2.457,2.458 5.793,3.84 9.268,3.84c5.915,-0 11.131,-4.004 12.661,-9.718m-25.32,-6.784c1.53,-5.713 6.747,-9.717 12.662,-9.717c3.474,0 6.811,1.382 9.268,3.839l5.053,5.055m0,-7.929l0,7.928" style="fill:none;fill-rule:nonzero;stroke:#5123a0;stroke-width:2.38px;stroke-linecap:round;stroke-linejoin:round;"/></svg>